<svg width="24" height="25" viewBox="0 0 24 25" fill="none" xmlns="http://www.w3.org/2000/svg">
<g clip-path="url(#clip0_6_3124)">
<path d="M1.14002 9.79506L1.31002 10.0481C0.97002 10.0381 0.614021 10.0051 0.546021 9.85906C0.546021 9.85206 0.548021 9.84506 0.550021 9.83806C0.740021 9.78806 0.903021 9.78506 1.14002 9.79506ZM2.94602 10.5651L3.02802 10.8151L2.83602 10.8231L2.88202 10.5671C2.90339 10.5671 2.92475 10.5661 2.94602 10.5641V10.5651ZM3.60002 12.3901C3.43002 12.5461 3.29902 12.6501 3.19802 12.8871C3.05802 12.7721 2.98502 12.5441 2.94002 12.2891C2.89002 12.0111 2.87402 11.7021 2.83602 11.4711L2.84802 11.3531L3.04502 11.3391L3.54702 12.2891L3.60002 12.3891V12.3901ZM3.34602 10.0481C3.37096 9.87729 3.39662 9.70662 3.42302 9.53606L3.48802 9.53206C3.44002 9.70406 3.39202 9.87606 3.34602 10.0481ZM3.20902 7.72606L4.10902 7.97006C4.10755 7.98338 4.10622 7.99672 4.10502 8.01006C3.68602 8.32006 3.29902 8.45606 3.09102 9.01606L3.17002 7.77006L3.20902 7.72706V7.72606ZM4.04902 6.43606C3.99102 7.01606 4.07302 7.27206 4.17402 7.63206C4.33402 7.74606 4.39802 7.81506 4.34602 7.98406C4.07602 7.85006 3.79002 7.71006 3.37602 7.73206C3.36592 7.72048 3.35592 7.70881 3.34602 7.69706C3.46202 7.24006 3.68802 6.95906 3.86302 6.59706L4.05002 6.43506L4.04902 6.43606ZM5.34302 5.66406L5.38202 5.66106C5.25802 6.08906 5.20802 7.07606 4.99102 7.46806C4.47802 7.22506 4.48802 6.17206 5.06202 5.75606L5.34202 5.66406H5.34302ZM4.86502 8.83406L5.29702 9.30306C5.12702 9.82506 4.80602 10.2181 4.67002 10.8231L4.41502 10.8031C4.19702 10.1941 4.74202 9.20206 4.83502 8.75806L5.23502 8.80406C5.28502 8.92906 5.33302 9.05406 5.38202 9.18006L4.86502 8.83306V8.83406ZM6.04702 5.66006C6.00302 6.16706 6.11502 6.43006 6.14502 6.82206C5.89102 6.95206 5.63602 7.08006 5.38202 7.20906C5.4292 6.68426 5.55493 6.16952 5.75502 5.68206L6.04702 5.66006ZM6.34302 4.89006L6.40002 4.88606L6.31402 5.13306L6.14502 5.14406L6.27502 4.99106L6.34302 4.89006ZM6.40002 7.25506L5.63602 7.72506C5.65202 7.44106 6.01402 7.05806 6.31702 6.95206L6.38702 6.99006L6.40002 7.25506ZM6.91002 5.47706C6.86302 5.73906 6.81702 6.00006 6.77202 6.26206L6.62902 6.35206L6.55302 6.43506C6.41502 6.24106 6.38002 5.76506 6.41002 5.40306L6.91002 5.47706ZM7.41802 4.88706C7.41802 4.89706 7.41602 4.90506 7.41502 4.91306L7.22002 5.10006C7.09002 5.15006 7.07402 5.14806 6.91002 5.14206C6.93102 5.05706 6.95502 4.97206 6.97802 4.88706H7.41802ZM7.92802 3.85506L7.70002 4.37006L6.91002 4.31306L6.91302 4.27106C7.23802 4.12106 7.52302 3.94306 7.92702 3.85406L7.92802 3.85506ZM7.51602 5.19506L7.60002 5.14506L7.67302 5.40306L7.41802 5.35306L7.51602 5.19406V5.19506ZM8.18202 5.95806C7.87902 6.07606 7.46002 6.04306 7.21702 6.17806C7.19956 6.07469 7.1819 5.97136 7.16402 5.86806L7.32202 5.66106C7.57902 5.76106 7.83602 5.86306 8.09202 5.96406L8.18202 5.95806ZM7.53102 6.42206L7.18502 6.43506C7.17702 6.39906 7.17102 6.36306 7.16402 6.32606C7.40702 6.22706 7.81502 6.21806 8.18202 6.17706L7.79502 6.39006L7.53102 6.42206ZM8.43602 6.42206C8.14502 6.49506 7.86602 6.75206 7.67502 6.95206C7.63802 6.71806 8.08702 6.30606 8.30202 6.17706C8.39702 6.26206 8.40702 6.25306 8.43602 6.42206ZM8.94602 3.33906L8.94202 3.37906L8.63602 3.56406L8.18202 3.59706L8.18602 3.55706L8.94602 3.33906ZM8.53402 4.11306L8.43602 3.96806C8.66602 3.77506 9.17302 3.88106 9.45502 3.91006L8.53402 4.11306ZM10.812 3.35306C11.237 3.38806 11.626 3.48806 11.922 3.67306L12 3.66806L11.953 3.73406L11.546 3.85406C11.301 3.82006 11.056 3.78406 10.812 3.74906L9.20002 3.52006L9.20402 3.48706C9.73028 3.36207 10.2724 3.31723 10.812 3.35406V3.35306ZM12.505 3.21706L12.415 3.33906C12.171 3.32161 11.9377 3.23178 11.745 3.08106L12.509 3.17806L12.505 3.21706ZM13.861 4.17106L14.072 4.09106L14.291 4.27906C14.261 4.49406 14.054 4.67006 13.895 4.87906L13.773 4.88706C13.441 4.33706 13.022 3.73606 12.287 3.52406L12.255 3.45906L12.552 3.33906C13.051 3.51306 13.467 3.77706 13.93 3.92906C13.99 4.07406 13.971 4.02506 13.86 4.17106H13.861ZM14.475 5.39406L14.417 5.33706L14.291 5.34606L14.501 5.14606L14.475 5.39406ZM14.7 8.24206C15.044 8.54006 15.132 8.97206 14.989 9.53206C14.841 9.20006 14.694 8.86706 14.545 8.53506C14.595 8.46106 14.642 8.38706 14.691 8.31306C14.694 8.28906 14.696 8.26506 14.7 8.24206ZM14.8 5.92206L14.796 5.97006L14.615 6.17706L14.545 6.04006C14.654 5.84506 14.575 5.95006 14.718 5.93006L14.8 5.92206ZM15.012 5.91906L15.818 6.21806C15.8167 6.24481 15.8144 6.2715 15.811 6.29806C15.743 6.34506 15.675 6.39006 15.607 6.43506L14.8 6.13706L14.807 6.05606L15.012 5.91906ZM16.582 6.95206L16.135 6.65506L16.073 6.53506C16.267 6.41506 16.239 6.42106 16.444 6.46106C16.489 6.62506 16.536 6.78806 16.582 6.95106V6.95206ZM16.836 6.85406L16.746 6.95206C16.638 6.89606 16.619 6.82506 16.582 6.69306L16.815 6.79506L16.836 6.85406ZM16.646 6.11506L16.582 6.12006C16.652 6.05306 16.722 5.98606 16.794 5.92006C16.744 5.98506 16.694 6.05006 16.646 6.11506ZM17.855 7.41306L17.73 7.46806C17.5028 7.34078 17.2758 7.21311 17.049 7.08506C16.9778 6.98852 16.9068 6.89186 16.836 6.79506C17.189 6.53506 17.202 6.83706 17.535 7.00206L17.855 7.41306ZM18.109 7.64106L17.855 7.54806L18.008 7.46806L18.109 7.64106ZM17.799 8.05706C17.891 8.24206 17.891 8.19006 18.109 8.16206L17.718 8.50006L17.345 7.78806L17.35 7.74406C17.625 7.68506 17.713 7.78406 17.982 7.82406L18.085 7.99006L17.8 8.05706H17.799ZM17.855 8.52006L18.364 8.24206C18.262 8.47206 18.129 8.59006 17.972 8.75806L17.855 8.52006ZM18.873 9.50506C18.735 9.62406 18.645 9.66206 18.384 9.68406L18.594 9.70706L18.59 9.74406L17.873 10.0481L17.855 9.12806L18.349 8.54306L18.439 8.50006L18.873 9.50506ZM18.618 8.09306C20.024 7.70106 19.752 8.44706 19.125 9.01606C18.955 8.70906 18.786 8.40106 18.618 8.09306ZM19.891 8.24206C19.373 10.6761 19.273 10.8091 17.441 11.8551C17.4103 11.8059 17.3783 11.7575 17.345 11.7101L17.41 11.4381C18.605 11.0981 19.284 10.4721 19.213 9.05506L19.812 8.28506L19.891 8.24206ZM19.953 8.24206C19.933 8.15806 19.913 8.07406 19.891 7.99006L20.081 7.98406L19.953 8.24206ZM16.836 10.6091L16.854 10.3401L16.87 10.1101L17.046 10.0511C17.055 10.0511 17.063 10.0491 17.071 10.0481C17.121 10.3531 17.071 10.5781 16.971 10.8231C16.885 10.7681 16.868 10.7451 16.836 10.6091ZM15.818 12.8671L15.822 12.8221L16.156 12.0231L16.226 11.8551L16.814 11.8951C16.823 11.9391 16.829 11.9821 16.832 12.0231C16.858 12.3271 16.753 12.5701 16.645 12.8871L15.818 12.8671ZM16.073 13.9031L16.08 13.5031L16.09 13.4031L16.52 13.4351L16.582 13.4301C16.483 13.5931 16.385 13.7561 16.288 13.9201L16.073 13.9031ZM15.821 12.2331L15.847 12.2201L16.05 12.1151L16.073 12.1131L16.043 12.2201L15.924 12.6291L15.818 12.2651L15.821 12.2331ZM15.424 13.5181L15.309 13.4031C15.421 13.4811 15.348 13.4051 15.424 13.5181ZM14.8 13.2111C14.943 13.1211 15.098 13.1491 15.31 13.1511L15.247 13.3581C15.072 13.4281 15.047 13.4021 14.85 13.3811L14.8 13.2111ZM15.112 14.1771L15.309 14.6431C15.157 14.7461 15.004 14.8481 14.852 14.9521C14.716 14.7651 14.864 14.2421 15.112 14.1771ZM14.609 12.5571L14.545 12.5621L14.629 12.3711L14.609 12.5581V12.5571ZM15.342 12.6291L15.309 12.6081L15.421 12.3721L15.458 12.3711L15.564 12.6191L15.342 12.6291ZM17.105 9.27406L17.091 9.18706C17.158 9.10506 17.201 9.05406 17.316 9.01706L17.346 9.16906C17.296 9.20206 17.246 9.23406 17.197 9.26806L17.105 9.27406ZM17.091 9.90406C17.045 9.96506 16.963 9.99906 16.905 10.0481L16.836 8.75806L17.091 9.90406ZM16.624 11.6341C16.792 11.5401 16.816 11.6271 16.836 11.8541H16.327L16.336 11.7741L16.624 11.6341ZM16.374 10.9211L16.489 10.8231L16.582 10.9891L16.539 11.0811L16.327 11.0561L16.374 10.9211ZM16.327 11.6051L16.062 11.8551L15.889 11.8261L15.819 11.8331C15.859 11.7541 15.901 11.6751 15.942 11.5971L16.327 11.6051ZM15.367 11.4581C15.261 11.3841 15.337 11.3941 15.317 11.3381L15.367 11.4581ZM16.169 10.3061L15.309 9.86006C15.349 9.27006 15.421 8.59206 15.363 7.98406C16.026 8.22406 16.621 9.30306 16.169 10.3061ZM15.564 10.3061C15.775 10.4181 15.764 10.5201 16.057 10.6101C16.108 10.8011 16.03 10.8771 15.908 11.0801L15.596 11.0681C15.532 10.7281 15.602 10.5331 15.564 10.3061ZM15.622 11.9751C15.515 11.9011 15.592 11.9111 15.572 11.8551L15.622 11.9751ZM17.345 9.49106L17.348 9.44306L17.578 9.27406C17.618 9.53806 17.603 9.97806 17.543 10.3061C17.407 10.2001 17.382 9.75206 17.345 9.49106ZM17.345 10.3061C17.397 10.2201 17.449 10.1341 17.499 10.0481L17.409 10.3021L17.345 10.3061ZM18.83 9.53506L18.873 9.53206C18.885 10.5211 18.275 10.7011 17.473 11.0721L17.345 11.0811L17.845 10.0451L18.83 9.53506ZM17.32 7.60306C17.328 7.62906 17.337 7.65406 17.344 7.68006L17.281 7.72606L17.09 7.46806L17.32 7.60306ZM17.09 8.03306L17.097 7.98806C17.1157 7.98657 17.1343 7.98524 17.153 7.98406L17.345 8.24206C17.197 8.17206 17.173 8.15406 17.09 8.03206V8.03306ZM17.344 8.69306L17.001 9.01606L16.264 7.94606L15.308 7.11606L15.518 6.95206C15.981 7.15206 16.791 7.53306 16.954 8.00906C17.007 8.16406 16.824 8.29206 16.948 8.42106C17.096 8.57506 17.244 8.46506 17.345 8.69206L17.344 8.69306ZM15.196 10.3061L15.274 10.3371L15.308 11.0811L15.189 11.0531C15.077 10.9701 14.999 10.5861 15.101 10.4191L15.196 10.3061ZM14.632 11.6001L14.714 11.5971L14.799 11.7991L14.669 11.8491L14.544 11.8551C14.574 11.7701 14.604 11.6851 14.632 11.6001ZM14.4 15.7261L14.29 15.3491C14.447 15.3041 14.603 15.2591 14.76 15.2121L14.8 15.2101C14.798 15.2217 14.7963 15.2333 14.795 15.2451L14.4 15.7251V15.7261ZM14.035 14.6941C14.082 14.5421 14.115 14.5191 14.2 14.4351L14.27 14.4631L14.29 14.5291L14.133 14.6831L14.035 14.6931V14.6941ZM14.155 14.9521L14.035 14.8201L14.29 14.6941L14.224 14.9471L14.155 14.9521ZM13.887 16.1221C13.851 16.0941 13.817 16.0651 13.781 16.0351L13.859 16.0301L14.252 15.7261L14.29 16.0361L13.989 16.2421L13.887 16.1221ZM13.907 19.0781C13.294 19.1041 12.927 18.9481 12.427 18.9041L11.854 17.7711L11.744 17.6571C12.706 17.5431 13.311 17.0791 14.024 16.7581C14.276 16.9981 14.847 18.2201 14.344 18.7611C14.224 18.9461 14.089 18.9651 13.906 19.0781H13.907ZM11.275 17.8051L11.505 17.7901C11.852 18.0231 12.088 18.4401 12.254 18.8231L11.235 18.5281C11.311 18.2701 11.343 18.0081 11.275 17.8051ZM10.543 16.8311L11.691 16.5001L13.495 16.6761L13.527 16.7671C12.99 17.0091 12.379 17.2131 11.763 17.5251C11.096 17.5781 10.935 17.3291 10.473 17.1651L10.544 16.8311H10.543ZM10.472 18.0471L10.495 17.8231L10.934 17.7901C10.97 17.9851 11.008 18.0941 10.954 18.3061L10.472 18.0461V18.0471ZM9.96202 18.4511L10.133 18.3571C10.343 18.2181 10.5 18.4031 10.726 18.4761L10.636 18.5641L9.96302 18.4511H9.96202ZM10.457 18.0481C10.4015 18.0234 10.3462 17.9984 10.291 17.9731L10.217 17.7901L10.472 17.8061L10.457 18.0481ZM9.70802 18.0481L9.96302 18.2671C9.96302 18.4021 9.95102 18.3871 9.92002 18.5641L9.70802 18.0481ZM9.04802 17.0811C9.28702 17.0081 9.60502 17.0241 9.96302 17.0161L9.63002 17.2741L8.94502 17.2071L9.04802 17.0811ZM8.43602 4.14806C8.90902 3.69606 10.095 3.83106 10.392 4.11806L10.472 4.11106C10.077 4.48006 9.46502 4.52206 9.08902 4.88706C8.79402 4.69106 8.55002 4.56506 8.43602 4.14806ZM11.036 4.88706L11.236 5.11406C11.058 5.12406 10.871 5.13506 10.684 5.15106C10.263 5.18706 9.84702 5.25006 9.55602 5.40106L9.51802 5.40306C9.49698 5.37009 9.47598 5.33709 9.45502 5.30406C9.9327 5.05348 10.4601 4.91208 10.999 4.89006L11.036 4.88706ZM12.028 3.59706C12.357 3.92706 12.848 4.12306 13.018 4.62906C12.328 4.30806 11.266 4.31306 10.728 3.80206C11.202 3.90306 11.606 3.86506 12.028 3.59706ZM12.255 5.40306L13.199 5.53306L13.273 5.52706L12.516 6.17706C12.396 5.93806 12.368 5.61406 12.255 5.40306ZM13.468 6.50706L13.273 6.47706L13.527 6.43506L13.467 6.50706H13.468ZM13.273 5.89006L13.506 5.66106L13.527 5.91906L13.358 5.88206L13.273 5.89006ZM13.735 14.4301L13.623 14.4351L13.527 14.3451L13.601 14.2481L13.781 14.1781L13.735 14.4311V14.4301ZM13.532 14.9021C13.562 14.8661 13.594 14.8301 13.626 14.7941L13.634 14.6941L13.782 14.9291L13.527 14.9521L13.532 14.9021ZM13.431 15.7261L13.273 15.5361L13.782 15.4681L13.539 15.7181L13.431 15.7261ZM13.527 16.5001L13.018 16.4391L13.378 16.2421L13.528 16.5001H13.527ZM13.17 15.7721L13.273 15.8701L12.904 15.9641L12.509 15.9841L13.059 15.7261L13.17 15.7721ZM11.746 4.62906C12.043 4.63706 12.357 4.71206 12.509 4.88706C12.304 4.86706 11.935 4.90006 11.842 4.74206L11.746 4.62906ZM12.004 5.66106C12.149 5.78806 12.2 5.93806 12.174 6.17706C11.95 6.10006 12.008 5.85506 12.004 5.66106ZM12.254 7.28806L12.263 7.24406C12.77 7.13406 12.879 7.31006 12.648 7.46806C12.448 7.44006 12.358 7.36506 12.255 7.28806H12.254ZM12.907 13.9191L13.018 13.9471C13.0165 13.959 13.0152 13.971 13.014 13.9831L12.764 14.1771L12.868 13.9221L12.907 13.9191ZM12.767 7.62506L12.957 7.46806L13.018 7.72606L12.764 7.67006L12.766 7.62506H12.767ZM13.527 14.5251L12.912 14.6861L12.764 14.6931C12.764 14.6851 12.766 14.6761 12.768 14.6681C12.998 14.6221 13.146 14.5461 13.282 14.4351L13.498 14.4751L13.528 14.5251H13.527ZM13.088 13.9191L13.018 13.7761L13.193 13.6611L13.273 13.7041L13.173 13.9121L13.088 13.9191ZM11.491 15.7041L11.794 15.4681L12.732 15.5481L12.764 15.6181L12.13 15.9841C11.895 15.9451 11.692 15.8411 11.57 15.6981L11.49 15.7041H11.491ZM11.02 15.7261L11.49 15.9841L10.727 15.8491C10.825 15.8091 10.922 15.7671 11.02 15.7261ZM10.982 16.2531C10.9809 16.2737 10.9799 16.2944 10.979 16.3151L10.834 16.3951L10.727 16.4091L10.731 16.3471C10.842 16.2001 10.823 16.2491 10.981 16.2531H10.982ZM9.78202 5.75006C9.75791 5.72418 9.73358 5.69851 9.70902 5.67306C9.96202 5.53506 10.361 5.46906 10.753 5.43806C11.076 5.41106 11.394 5.40806 11.622 5.40306L11.746 6.17706C11.413 6.14106 11.096 6.09706 10.753 6.08206C10.4567 6.06737 10.1596 6.07808 9.86502 6.11406C9.83791 5.9926 9.81024 5.87127 9.78202 5.75006ZM10.156 16.1051L10.218 16.2151L10.158 16.4461L9.45502 16.5001C9.53002 16.2701 9.64202 16.1591 9.76302 15.9841L10.156 16.1051ZM9.28802 15.2101C8.96802 15.1921 8.53002 14.9581 8.43602 14.6941L9.45502 14.9531L9.28802 15.2101ZM9.64602 15.1961L9.45502 15.2101L9.46102 15.1481L9.67302 14.9521C9.66302 15.0331 9.65502 15.1141 9.64602 15.1961ZM8.94602 5.75906L9.25602 5.66106L9.45502 5.91106L9.24502 5.91906L8.94502 5.75906H8.94602ZM8.94202 16.8391C8.92502 16.8951 8.91002 16.9521 8.89402 17.0091C8.86927 17.0104 8.84458 17.0127 8.82002 17.0161C8.77715 16.93 8.73415 16.844 8.69102 16.7581L8.94602 16.7841L8.94202 16.8391ZM9.08302 15.7261L9.67702 15.8461L9.70902 15.9261L9.24802 16.5001L8.69102 16.4181L9.08302 15.7261ZM13.527 7.63806L13.642 7.46906L13.684 7.46806L14.004 7.54806L14.036 7.59406L13.679 7.72606C13.6284 7.69662 13.5778 7.66729 13.527 7.63806ZM14.216 6.80406L14.036 6.69406C14.219 6.76106 14.114 6.68506 14.216 6.80406ZM14.158 7.98406L14.036 7.88006L14.291 7.72606L14.158 7.98406ZM14.036 9.79006L14.432 9.88806C14.539 9.93006 14.536 9.94106 14.545 10.0481C14.375 9.98306 14.091 9.93806 14.036 9.79006ZM14.076 9.08706L14.13 9.01706L14.291 9.27406L14.036 9.22406L14.076 9.08706ZM8.91902 17.5781L8.94602 17.6461L8.60302 17.7771L8.43602 17.7901L8.44002 17.7551L8.55702 17.5721C8.71902 17.4971 8.72302 17.5461 8.91902 17.5781ZM8.18202 4.62806C8.40402 4.79406 8.46202 4.99806 8.42702 5.66106C8.28102 5.47406 8.19202 5.07706 8.18202 4.62906V4.62806ZM8.32802 4.11306L8.31002 4.30006L8.18302 4.30906L8.32902 4.11306H8.32802ZM8.18202 4.37106C8.17502 4.43306 8.17002 4.49506 8.16202 4.55706L7.92702 4.51406L8.12102 4.37506L8.18102 4.37106H8.18202ZM8.18202 19.3391L8.30802 18.0251L9.20002 17.7901L8.26202 19.2911L8.18202 19.3391ZM8.24502 15.8071L8.38202 15.7261C8.50702 15.8741 8.39502 16.0871 8.27702 16.2421C8.17902 16.1501 8.16802 16.0921 8.19402 15.8831L8.24402 15.8071H8.24502ZM7.41802 15.6811L7.71102 15.2101L8.18102 15.4861C8.02102 15.7381 7.85802 15.9901 7.69602 16.2421C7.55002 16.1121 7.46002 15.9211 7.41802 15.6821V15.6811ZM7.41802 17.7021L7.88802 17.2741L8.10902 17.2941L8.18202 17.4141C8.16202 17.5401 8.14402 17.6651 8.12602 17.7901L7.41802 17.7021ZM6.65502 17.3521L7.21502 17.0161L7.64102 17.0831L7.67302 17.1421L7.22402 17.5321C7.00002 17.5091 6.85102 17.4491 6.73402 17.3471L6.65402 17.3521H6.65502ZM6.58002 16.8531L6.78502 16.7581L6.87302 16.7771L6.90902 16.8191L6.31602 17.0161L6.14602 16.9561L6.58002 16.8531ZM5.89102 16.6111L6.04102 16.2481C6.31902 16.2121 6.38502 16.3491 6.59402 16.4361L6.65402 16.5281L6.34302 16.7411L6.09002 16.7581L5.89102 16.6111ZM5.38102 17.6701L5.75202 17.0161C5.99802 17.0161 6.02802 17.0361 6.12902 17.1661C6.17402 17.2421 6.13502 17.2011 6.03702 17.2181L6.01402 17.4431L6.40002 17.5031C6.32402 17.6921 6.31202 17.6671 6.19802 17.7871C5.81802 17.8071 5.64702 17.7351 5.38202 17.6701H5.38102ZM4.95302 16.7581L5.60002 16.9531L5.63602 17.0301L5.22102 17.5321L4.61802 17.3341L4.95302 16.7581ZM2.46002 16.0601L2.46802 15.9831L2.82902 16.2611L2.86002 16.3351C2.10902 16.9151 3.25802 18.8051 4.56502 17.5801L5.12702 17.8061C4.91102 18.1911 4.54002 18.3431 4.14902 18.5611C3.21402 18.6391 1.90502 17.1121 2.45902 16.0601H2.46002ZM3.33202 16.3241L3.34602 16.4991C3.27602 16.4461 3.20602 16.3951 3.13802 16.3421L3.09102 16.2411L3.33102 16.3241H3.33202ZM4.61802 17.4201L4.15302 17.7801C3.23702 17.8761 2.86602 17.2421 2.83602 16.4631L3.01502 16.2471L3.09302 16.2411C3.55402 16.6041 3.96202 17.1581 4.58802 17.3411L4.61802 17.4201ZM3.73102 13.6601C3.64802 13.6001 3.64302 13.5701 3.60102 13.4681L3.77502 12.8061L3.97802 12.6281L4.10902 12.8201L3.73102 13.6601ZM3.60102 13.8831L4.00202 12.9341L4.08402 12.8861C4.26902 13.2121 4.53702 13.3601 4.61802 13.8031L4.01402 14.4341C3.82621 14.2942 3.68251 14.1033 3.60002 13.8841L3.60102 13.8831ZM4.36402 14.6731L4.87402 14.1761L5.12702 14.6931C4.87271 14.6854 4.61838 14.6787 4.36402 14.6731ZM5.63602 9.45806C5.39502 9.97306 5.07402 10.3231 4.88202 10.8221C4.79802 10.3691 5.30402 9.71806 5.46702 9.31806L5.54502 9.27306L5.63602 9.45806ZM5.63602 8.03806C6.01502 7.92106 6.26902 7.70706 6.54002 7.46706L6.65502 7.81106L6.33302 8.24106L5.63602 8.03906V8.03806ZM6.90902 8.06506L6.77102 8.24106L6.65502 8.22106L6.65702 8.19306L6.88902 7.98306L6.90902 8.06506ZM6.70902 6.95306L6.74902 6.95106L6.90902 7.28806L6.84902 7.46706C6.61602 7.34506 6.62502 7.20006 6.70902 6.95306ZM6.66102 14.4341L6.89602 14.6031L6.65502 14.4971C6.65637 14.476 6.65838 14.455 6.66102 14.4341ZM6.65702 14.6931L6.90902 14.8021C6.90752 14.812 6.90619 14.822 6.90502 14.8321L6.36502 15.2091C6.21002 15.1391 6.19102 15.0001 6.14502 14.8491L6.15002 14.8171L6.65702 14.6931ZM5.90402 14.1761L6.14602 14.2741L6.01602 14.3491L5.89102 14.3631L5.90402 14.1761ZM5.89102 9.01606C6.19702 9.10206 6.10002 9.04406 6.11302 9.27306C5.97302 9.19106 5.96302 9.15206 5.89102 9.01506V9.01606ZM5.89102 13.6251L5.91202 13.4021C6.03102 13.4851 6.07202 13.5341 6.14602 13.6601C6.06105 13.6482 5.97604 13.6365 5.89102 13.6251ZM6.40102 10.4021C6.30502 10.5251 6.30902 10.4921 6.14602 10.5631L6.25702 10.3051L6.40002 10.4021H6.40102ZM6.40102 9.36406L6.24102 9.53106C6.08102 9.44106 6.15602 9.47706 6.22802 9.31006L6.32302 9.27306L6.40002 9.36406H6.40102ZM6.38002 8.92506L6.14602 8.75706C6.32602 8.82606 6.28402 8.78406 6.38002 8.92506ZM5.89102 13.6601L6.14602 13.8631C6.01602 13.8601 5.94602 13.8321 5.89102 13.6601ZM6.65502 13.6501L6.55102 13.6601L6.46202 13.4961L6.40002 13.4161L6.53802 13.4021C6.57702 13.4851 6.61502 13.5681 6.65502 13.6501ZM6.51502 8.87206L6.40002 8.75806C6.51202 8.83606 6.43802 8.76006 6.51402 8.87306L6.51502 8.87206ZM6.53002 13.1221L6.40002 12.8521L6.45502 12.6301L6.48702 12.6281L6.65502 13.1441C6.61337 13.1367 6.5717 13.1293 6.53002 13.1221ZM5.86302 16.1251L5.89102 16.1591L5.80002 16.5001C5.69292 16.4556 5.59861 16.3851 5.52562 16.295C5.45263 16.2049 5.40327 16.0981 5.38202 15.9841L5.86302 16.1261V16.1251ZM5.12702 16.5001L5.38202 16.7261C5.21902 16.6541 5.20902 16.6571 5.12702 16.5001ZM5.56702 14.2121L5.59702 14.4351L5.38202 14.1771L5.56702 14.2121ZM5.31502 15.4191L5.12702 14.9521C5.35002 15.0371 5.52402 15.2921 5.63702 15.4681L5.31502 15.4191ZM5.51502 10.8251L5.57802 10.8231L5.39202 11.0811C5.36202 11.0171 5.39902 10.9561 5.50202 10.8811L5.51502 10.8241V10.8251ZM5.38202 13.0431L5.33102 13.1451L5.18502 13.0321C5.16566 12.9911 5.14633 12.9501 5.12702 12.9091L5.32702 12.8871L5.38202 13.0431ZM3.60002 15.2101C4.11002 15.5421 4.97702 15.8501 5.12702 16.5001C4.52236 16.1981 3.99876 15.7558 3.60002 15.2101ZM4.92302 14.9601L5.12702 15.2101L4.61802 14.9521L4.92302 14.9601ZM6.78702 15.7261L6.40002 15.3361L7.07702 14.6941L7.16402 15.4011L6.78702 15.7261ZM7.16402 16.1571L7.23102 15.9891L7.32102 15.9841L7.41802 16.2421L7.16402 16.1571ZM7.50702 15.2101L7.41802 14.9521L7.60302 14.9861L7.50702 15.2101ZM7.16402 6.52006L7.16602 6.49706C7.25002 6.47706 7.33402 6.45706 7.41802 6.43506L7.24202 6.69306L7.16402 6.52006ZM4.59702 11.8551L4.36402 11.3391C4.66302 11.4041 4.61402 11.6171 4.59702 11.8551ZM3.97402 12.1131C3.75602 11.9621 3.61702 11.6611 3.60002 11.3391C4.04702 11.4441 4.02202 11.6201 4.11002 12.0281L3.97402 12.1131ZM3.71102 10.7661C3.38602 10.4591 3.85902 9.23106 4.06702 8.94806C4.17702 8.80906 4.31502 8.81206 4.49702 8.75806L4.61802 8.78906C4.31202 9.33106 4.10602 10.0691 4.03302 10.8231L3.71102 10.7661ZM3.23602 14.9521L3.39102 15.2131L3.25202 15.5381L3.17202 15.6231C3.28602 15.6391 3.31202 15.5411 3.48202 15.4021C3.81202 15.9371 4.31602 16.4491 4.87202 16.7401L4.56902 17.2741L3.64902 16.6821C3.54402 16.4871 3.68902 16.2631 3.52002 16.1441C3.36702 16.0361 3.17002 16.1921 3.01402 16.1451L2.58202 15.7491C2.70902 15.4651 2.83102 15.1871 3.08202 15.0421L3.23602 14.9521ZM2.35602 12.1061C2.39073 11.8487 2.44048 11.5936 2.50502 11.3421L2.53902 11.3391L2.67202 12.1061L2.74202 12.5061C2.94202 13.0641 3.14402 13.6211 3.34602 14.1771C2.86202 13.9131 2.56302 13.3021 2.60602 12.4801C2.49002 12.7451 2.58602 13.1621 2.62402 13.3961C2.32702 13.1441 2.28902 12.6431 2.35502 12.1061H2.35602ZM1.91402 12.3711C1.86777 12.2734 1.83868 12.1686 1.82802 12.0611C1.81378 11.9163 1.81512 11.7705 1.83202 11.6261L1.87602 11.5341L2.07302 11.3391L1.96202 12.0601L1.91402 12.3701V12.3711ZM19.636 14.9511L19.127 14.7551L19.621 14.6941L19.636 14.9521V14.9511ZM6.16602 19.1511L6.29902 19.0811L6.14502 19.3381L6.16502 19.1521L6.16602 19.1511ZM2.32702 10.3071L2.11002 10.2871C1.84002 10.1981 1.58702 9.88306 1.56402 9.53306C1.97702 9.57006 2.11702 9.76606 2.32102 10.0051C2.32302 10.1051 2.32602 10.2061 2.32702 10.3071ZM2.29702 10.2861C2.32702 9.72906 1.90202 9.38106 1.35002 9.39606C1.44402 8.61406 2.12402 8.21406 2.73002 7.95106L2.84702 7.94206C2.74602 8.92406 2.82302 9.77006 2.45602 10.6201C2.18502 11.2461 1.22402 11.2341 1.27602 12.2001L1.28302 12.2801C1.42002 13.5641 2.81602 13.8251 3.00902 14.9541C0.939021 16.0071 3.46202 20.4321 5.09902 17.8331C5.39302 17.8751 5.65402 18.0081 6.01902 17.8801C6.18902 17.7861 6.22202 17.7101 6.28802 17.5141L6.87302 17.8171L6.90302 17.8911C6.36702 18.3071 5.98902 18.8781 5.41302 19.2681L5.46802 19.1101L5.31802 19.0831L5.23502 19.1281L5.16002 19.4781C5.48902 19.8141 6.48602 18.5991 6.77802 18.3611C6.61302 18.9381 6.20502 19.2351 5.97802 19.7631L6.04802 19.8351C6.47802 19.5271 7.00502 18.6551 7.08502 17.9921L7.72902 18.0991C6.92202 19.1901 4.84902 21.5901 3.75902 22.2311C3.92502 21.7101 4.18902 21.3121 4.32302 20.8841L4.24502 20.8901C4.22177 20.866 4.19844 20.842 4.17502 20.8181C3.91002 21.3401 3.47302 21.7071 3.39502 22.4111C3.44162 22.4808 3.50059 22.5415 3.56902 22.5901C4.86502 22.3741 7.02902 19.1171 8.06302 18.2271C7.78302 21.0371 6.27702 21.4751 4.97102 23.1771C6.15802 22.5851 6.87802 21.0751 7.89302 20.2371C7.78102 21.4101 7.50202 24.0331 6.80002 24.5001L6.91602 24.4911C7.70402 24.0011 7.75002 21.9861 8.01302 20.9561L8.12502 19.8731L9.25002 18.2931L9.33202 18.2481C9.45802 18.6431 10.028 19.0721 10.645 18.9571L11.088 18.7711L12.2 19.1871C12.346 20.7871 12.29 21.6841 11.277 22.9021C12.312 22.3731 12.692 20.3351 12.347 19.2531C14.754 19.5321 14.657 18.7201 14.201 16.9671L14.624 16.9741C14.546 16.8571 14.335 16.9441 14.174 16.8541C14.101 16.8071 14.115 16.8161 14.07 16.7461C14.642 16.1011 16.02 16.7421 15.73 17.8131C16.126 16.9251 15.251 16.1351 14.408 16.4531C14.768 16.0261 15.204 15.6751 15.432 15.1101L15.514 15.0661L17.494 17.1461L17.611 17.1371L17.701 17.0151C17.071 16.2691 16.442 15.5221 15.814 14.7751L16.016 14.6831C16.0607 14.637 16.1155 14.602 16.1761 14.581C16.2367 14.56 16.3014 14.5535 16.365 14.5621C16.3316 14.5455 16.2983 14.5288 16.265 14.5121C17.276 14.6131 18.568 15.4561 19.623 15.1841C19.72 15.0151 19.725 14.9241 19.666 14.7591C20.79 14.7871 22.812 14.4111 23.456 13.8651C21.726 14.2281 19.778 14.3511 18.19 14.1391L16.783 13.9741L16.704 13.9801L17.083 13.3001C18.243 13.2781 21.285 13.2491 21.9 12.5211L21.764 12.3391L21.234 12.2631C21.1969 12.3222 21.1762 12.3902 21.174 12.4601L21.594 12.5051C20.682 12.7351 18.142 13.2201 17.313 12.9371C17.226 12.8311 17.29 12.4631 17.294 12.1981C17.2955 12.1506 17.2935 12.1032 17.288 12.0561C18.48 11.7001 19.365 10.8981 19.728 9.68806C19.935 8.99506 19.798 8.08506 20.246 7.65306C20.532 7.67806 20.59 7.79906 20.8 7.88106C20.689 7.72706 20.53 7.64106 20.331 7.57106L19.958 7.82806C19.617 7.96006 19.26 7.61506 18.681 7.88406C18.211 7.48206 17.946 6.84706 17.311 6.60406L17.246 6.49406L18.016 5.74506C17.764 5.95606 17.507 6.20506 17.25 6.45506L16.734 6.22406L16.704 6.14906C17.292 5.73306 17.814 5.57906 18.483 5.71106C18.514 5.77306 18.547 5.83406 18.579 5.89606C18.548 5.94906 18.52 5.96406 18.493 5.97906L18.268 5.91906C18.365 5.97606 18.466 5.99406 18.567 6.01206L18.652 5.92906L18.665 5.81306C18.519 5.68306 18.474 5.58906 18.187 5.57906L18.324 5.37706C17.996 5.60306 17.33 5.66306 17.004 5.85906L17.758 5.26506L17.848 5.14406L16.453 5.97606C16.155 5.95606 15.838 5.81606 15.677 5.64906C15.6514 5.65104 15.6257 5.65304 15.6 5.65506L17.256 4.53506L17.229 4.42206C16.601 4.78806 15.972 5.15406 15.345 5.52106L14.743 5.37306L14.799 4.83206L19.116 1.44206L19.193 1.43606L19.132 1.28706C18.972 1.21106 18.315 1.74406 18.067 1.90306C17.111 2.51606 16.266 3.27906 15.326 3.83306C15.714 3.34006 16.424 2.84906 16.542 2.13106L16.352 2.10706L16.056 2.35906L16.378 2.21906C16.17 2.85206 15.228 3.98206 14.696 4.34006L14.634 4.19106C14.98 3.60906 15.321 2.82606 15.161 2.07906L14.871 1.90906L14.56 1.93206C14.759 2.01106 14.894 2.03006 15.04 2.12706C15.133 2.85106 14.777 3.34106 14.585 3.92706L14.503 3.97106C14.375 3.73406 14.383 3.62006 14.12 3.57706L14.097 3.42506L14.277 3.18106L14.401 3.09506C14.443 3.17506 14.445 3.14606 14.458 3.28306C14.4949 3.22419 14.5153 3.1565 14.517 3.08706L14.37 3.02106L13.981 3.43306C13.656 3.21606 13.298 2.98806 12.841 2.90306C13.1 2.36606 13.887 1.50306 13.481 0.822062C12.985 -0.00593829 11.292 0.948062 10.672 1.60506C10.6001 1.67832 10.5376 1.76029 10.486 1.84906C10.5474 1.80026 10.6094 1.75225 10.672 1.70506C11.284 1.24906 12.913 0.157062 13.266 1.03006C13.636 1.51706 12.927 2.45406 12.734 2.83506C12.074 2.76806 11.384 2.70506 10.674 2.71906C9.92672 2.72558 9.18468 2.84492 8.47302 3.07306C8.11302 3.19206 6.57702 4.11206 6.51802 4.10006L5.81802 3.42206L4.35402 2.68706L4.34602 2.76406L4.26002 2.84706L6.13602 4.43506L5.85002 4.61006C5.07802 4.02506 4.54602 3.67006 3.39702 3.37106L3.20302 3.38606C3.87402 3.84806 4.55002 4.27106 5.22502 4.69506L5.36002 4.87706C4.87802 5.08006 4.67402 5.50206 4.26702 5.76406C3.63102 5.46006 3.04202 5.18406 2.27102 4.95106L2.21702 5.10906L3.66102 6.03906L3.73902 6.03306L3.49002 6.20506C3.37502 6.59206 3.15002 7.04106 2.96202 7.58706C2.24202 8.17306 1.30902 8.13806 1.16402 9.33206C0.934021 9.39506 0.77202 9.41506 0.56202 9.56906L0.546021 9.72406C0.678021 9.90806 1.84702 10.4031 2.12602 10.4511L2.29802 10.2851L2.29702 10.2861ZM10.837 2.03006L10.944 2.05006L10.801 2.03206C10.776 2.03206 10.751 2.03406 10.727 2.03506C10.84 1.82506 11.172 1.77306 11.491 1.79606L11.469 1.94806L10.845 1.97906L10.837 2.02906V2.03006ZM11.283 2.30706L11.583 2.20906C11.713 1.99306 11.787 1.76406 11.721 1.55506C11.412 1.49406 11.234 1.56906 10.945 1.69106C10.8924 1.77657 10.8401 1.86224 10.788 1.94806L10.728 2.04806C10.7465 2.06952 10.7666 2.08958 10.788 2.10806C10.886 2.18806 11.004 2.21606 11.221 2.19806C11.281 2.30006 11.211 2.25506 11.104 2.28306L11.284 2.30706H11.283ZM18.686 4.63006L18.364 4.69006L18.562 4.67606L18.789 4.77406L18.445 5.40406C18.622 5.19506 18.798 5.04706 18.873 4.73006L18.686 4.63006ZM16.836 14.6951C16.756 14.5521 16.669 14.4581 16.582 14.4361C16.659 14.5091 16.748 14.5951 16.836 14.6951ZM15.818 17.7911L15.564 17.9391L15.759 17.9211L15.819 17.7911H15.818ZM16.836 14.6951C17.095 14.9871 17.289 15.5471 17.233 15.9851C17.527 15.3501 17.192 14.9541 16.836 14.6951Z" fill="#1A1B22"/>
</g>
<defs>
<clipPath id="clip0_6_3124">
<rect width="24" height="24" fill="white" transform="translate(0 0.5)"/>
</clipPath>
</defs>
</svg>
