<svg width="24" height="21" viewBox="0 0 24 21" fill="none" xmlns="http://www.w3.org/2000/svg">
<path d="M22.3233 7.05971H20.8106V5.54691C20.8106 4.62239 20.0585 3.87024 19.134 3.87024H17.6212V2.35758C17.6212 1.43002 16.8687 0.680908 15.9446 0.680908H1.67667C0.754453 0.680955 0 1.42767 0 2.35758V12.2638C0 13.1883 0.752156 13.9404 1.67667 13.9404H3.18937V15.4532C3.18937 16.3778 3.94153 17.1299 4.86605 17.1299H6.37875V18.6426C6.37875 19.5671 7.13091 20.3193 8.05542 20.3193H22.3234C23.2479 20.3193 24 19.5671 24 18.6426V8.73633C24 7.81186 23.2478 7.05971 22.3233 7.05971ZM14.7343 2.35524L8.81063 8.16057L2.88708 2.35538L14.7343 2.35524ZM1.67442 12.2638L1.67475 3.51169L8.22464 9.93071C8.55019 10.2498 9.07116 10.2497 9.39661 9.93071L15.9465 3.51164L15.9447 12.266L1.67442 12.2638ZM4.8638 15.4532V13.9404H15.9447C16.8692 13.9404 17.6213 13.1883 17.6213 12.2638V5.54494L19.1362 5.54541C19.1362 5.54541 19.1362 5.54593 19.1362 5.54696L19.134 15.4554L4.8638 15.4532ZM22.3233 18.6448L8.05317 18.6425V17.1298H19.134C20.0586 17.1298 20.8107 16.3777 20.8107 15.4532V8.73436L22.3256 8.73479C22.3256 8.73479 22.3257 8.7353 22.3257 8.73633L22.3233 18.6448Z" fill="#1D6BF3"/>
</svg>
