<svg width="68" height="68" viewBox="0 0 68 68" fill="none" xmlns="http://www.w3.org/2000/svg">
<rect x="0.623853" y="0.623853" width="66.7523" height="66.7523" rx="6.86239" stroke="#C5C5C5" stroke-width="1.24771" stroke-dasharray="4.99 4.99"/>
<path d="M40.7029 27.0683V40.572C40.7029 40.7399 40.6362 40.9009 40.5175 41.0196C40.3988 41.1383 40.2378 41.205 40.0699 41.205H26.5663C26.3984 41.205 26.2374 41.1383 26.1187 41.0196C26 40.9009 25.9333 40.7399 25.9333 40.572V27.0683C25.9333 26.9005 26 26.7395 26.1187 26.6208C26.2374 26.5021 26.3984 26.4354 26.5663 26.4354H40.0699C40.2378 26.4354 40.3988 26.5021 40.5175 26.6208C40.6362 26.7395 40.7029 26.9005 40.7029 27.0683Z" stroke="#C5C5C5" stroke-width="1.18684" stroke-linecap="round" stroke-linejoin="round"/>
<path d="M37.5378 23.2702H23.4012C23.2333 23.2702 23.0723 23.3369 22.9536 23.4556C22.8349 23.5743 22.7682 23.7353 22.7682 23.9032V38.0398M25.9331 36.7738L31.6764 34.8749L40.7027 38.0398M35.9553 32.765C35.5356 32.765 35.1331 32.5982 34.8364 32.3015C34.5396 32.0047 34.3729 31.6022 34.3729 31.1825C34.3729 30.7628 34.5396 30.3603 34.8364 30.0635C35.1331 29.7668 35.5356 29.6 35.9553 29.6C36.375 29.6 36.7775 29.7668 37.0743 30.0635C37.3711 30.3603 37.5378 30.7628 37.5378 31.1825C37.5378 31.6022 37.3711 32.0047 37.0743 32.3015C36.7775 32.5982 36.375 32.765 35.9553 32.765Z" stroke="#C5C5C5" stroke-width="1.18684" stroke-linecap="round" stroke-linejoin="round"/>
<path d="M38.3293 41.9963H41.4942M41.4942 41.9963H44.6591M41.4942 41.9963V38.8313M41.4942 41.9963V45.1612M41.4942 49.9085C45.8641 49.9085 49.4065 46.3662 49.4065 41.9963C49.4065 37.6263 45.8641 34.084 41.4942 34.084C37.1242 34.084 33.5819 37.6263 33.5819 41.9963C33.5819 46.3662 37.1242 49.9085 41.4942 49.9085Z" stroke="#C5C5C5" stroke-width="1.18684" stroke-linecap="round" stroke-linejoin="round"/>
</svg>
