<svg width="24" height="24" viewBox="0 0 24 24" fill="none" xmlns="http://www.w3.org/2000/svg">
<g id="exit" clip-path="url(#clip0_306_4649)">
<path id="Vector" fill-rule="evenodd" clip-rule="evenodd" d="M4.80001 1.60001C4.37567 1.60001 3.9687 1.76858 3.66864 2.06864C3.36858 2.36869 3.20001 2.77566 3.20001 3.20001V20.8C3.20001 21.2244 3.36858 21.6313 3.66864 21.9314C3.9687 22.2314 4.37567 22.4 4.80001 22.4H16.8C17.0122 22.4 17.2157 22.3157 17.3657 22.1657C17.5157 22.0157 17.6 21.8122 17.6 21.6C17.6 21.3878 17.5157 21.1843 17.3657 21.0343C17.2157 20.8843 17.0122 20.8 16.8 20.8H4.80001V3.20001H16.8C17.0122 3.20001 17.2157 3.11572 17.3657 2.96569C17.5157 2.81566 17.6 2.61218 17.6 2.40001C17.6 2.18783 17.5157 1.98435 17.3657 1.83432C17.2157 1.68429 17.0122 1.60001 16.8 1.60001H4.80001ZM20.1664 7.83361C20.0162 7.68339 19.8125 7.59899 19.6 7.59899C19.3876 7.59899 19.1838 7.68339 19.0336 7.83361C18.8834 7.98382 18.799 8.18756 18.799 8.40001C18.799 8.61245 18.8834 8.81619 19.0336 8.96641L21.2688 11.2H10.4C10.1878 11.2 9.98436 11.2843 9.83433 11.4343C9.6843 11.5843 9.60001 11.7878 9.60001 12C9.60001 12.2122 9.6843 12.4157 9.83433 12.5657C9.98436 12.7157 10.1878 12.8 10.4 12.8H21.2688L19.0336 15.0336C18.8834 15.1838 18.799 15.3876 18.799 15.6C18.799 15.8124 18.8834 16.0162 19.0336 16.1664C19.1838 16.3166 19.3876 16.401 19.6 16.401C19.8125 16.401 20.0162 16.3166 20.1664 16.1664L23.7664 12.5664C23.8409 12.4921 23.9 12.4038 23.9404 12.3066C23.9807 12.2094 24.0014 12.1052 24.0014 12C24.0014 11.8948 23.9807 11.7906 23.9404 11.6934C23.9 11.5962 23.8409 11.5079 23.7664 11.4336L20.1664 7.83361Z" fill="#1D6BF3"/>
</g>
<defs>
<clipPath id="clip0_306_4649">
<rect width="24" height="24" fill="white"/>
</clipPath>
</defs>
</svg>
