<svg width="24" height="24" viewBox="0 0 24 24" fill="none" xmlns="http://www.w3.org/2000/svg">
<g id="telegram">
<path id="Vector" d="M22.2646 2.42772C21.9799 2.19085 21.6363 2.03561 21.2704 1.97852C20.9044 1.92143 20.5298 1.96463 20.1865 2.10351L2.2656 9.33886C1.88235 9.49654 1.55612 9.76705 1.3302 10.1145C1.10428 10.4619 0.989366 10.8698 1.0007 11.2841C1.01204 11.6984 1.1491 12.0994 1.39368 12.4339C1.63826 12.7685 1.9788 13.0207 2.3701 13.1572L5.9951 14.418L8.0156 21.0996C8.04306 21.1889 8.0829 21.2738 8.13398 21.352C8.14173 21.364 8.15266 21.3729 8.1609 21.3846C8.2199 21.4669 8.29121 21.5397 8.37233 21.6003C8.3954 21.6179 8.41749 21.6344 8.44215 21.65C8.53708 21.713 8.64222 21.7591 8.75288 21.7861L8.76472 21.7871L8.77143 21.79C8.83796 21.8035 8.90568 21.8104 8.97358 21.8105C8.98011 21.8105 8.98591 21.8074 8.99238 21.8073C9.09484 21.8055 9.19641 21.7878 9.29347 21.755C9.31605 21.7473 9.3354 21.7344 9.35731 21.7251C9.42969 21.6951 9.49826 21.6567 9.5616 21.6106C9.61232 21.5678 9.66306 21.5251 9.71382 21.4824L12.416 18.499L16.4462 21.6211C16.8011 21.8973 17.2378 22.0474 17.6875 22.0478C18.1586 22.0472 18.6153 21.8846 18.9808 21.5874C19.3464 21.2901 19.5987 20.8762 19.6953 20.415L22.958 4.39843C23.0319 4.03795 23.0065 3.66415 22.8843 3.31702C22.7622 2.96989 22.548 2.66249 22.2646 2.42772ZM9.3701 14.7363C9.23144 14.8744 9.13666 15.0504 9.09764 15.2422L8.78813 16.7462L8.00407 14.1531L12.0693 12.0362L9.3701 14.7363ZM17.6719 20.04L12.9092 16.3505C12.7099 16.1966 12.4599 16.1233 12.2091 16.1454C11.9583 16.1675 11.7249 16.2833 11.5556 16.4697L10.6902 17.4249L10.9961 15.9384L18.0791 8.85543C18.2481 8.68659 18.3511 8.46278 18.3694 8.22455C18.3877 7.98632 18.3201 7.74941 18.1788 7.55675C18.0375 7.36408 17.8318 7.22839 17.5991 7.17426C17.3664 7.12014 17.122 7.15115 16.9101 7.26168L6.74485 12.5543L3.02049 11.1914L20.999 3.99899L17.6719 20.04Z" fill="#1D6BF3"/>
</g>
</svg>
